<svg width="14" height="14" viewBox="0 0 14 14" fill="none" xmlns="http://www.w3.org/2000/svg">
<g id="redo">
<mask id="mask0_792_833" style="mask-type:alpha" maskUnits="userSpaceOnUse" x="0" y="0" width="14" height="14">
<rect id="Bounding box" width="14" height="14" fill="#D9D9D9"/>
</mask>
<g mask="url(#mask0_792_833)">
<path id="redo_2" d="M5.80431 11.0831C4.86117 11.0831 4.04684 10.777 3.36131 10.1647C2.67577 9.552 2.33301 8.78876 2.33301 7.87503C2.33301 6.9613 2.67577 6.20063 3.36131 5.59303C4.04684 4.98543 4.86117 4.68163 5.80431 4.68163H9.33301L7.84551 3.19343L8.70651 2.33313L11.6668 5.29343L8.70651 8.25443L7.84551 7.39343L9.33301 5.90663H5.80431C5.20137 5.90663 4.67637 6.0912 4.22931 6.46033C3.78177 6.82993 3.55801 7.3015 3.55801 7.87503C3.55801 8.45836 3.78177 8.93483 4.22931 9.30443C4.67637 9.67356 5.20137 9.85813 5.80431 9.85813H9.90211V11.0831H5.80431Z" fill="#4D4D4D"/>
</g>
</g>
</svg>
