<svg width="14" height="14" viewBox="0 0 14 14" fill="none" xmlns="http://www.w3.org/2000/svg">
<g id="mode_comment">
<mask id="mask0_792_828" style="mask-type:alpha" maskUnits="userSpaceOnUse" x="0" y="0" width="14" height="14">
<rect id="Bounding box" width="14" height="14" fill="#D9D9D9"/>
</mask>
<g mask="url(#mask0_792_828)">
<path id="mode_comment_2" d="M12.8332 12.8331L10.5001 10.5H2.39199C2.05179 10.5 1.76246 10.381 1.52399 10.143C1.28599 9.9045 1.16699 9.61517 1.16699 9.27497V2.39187C1.16699 2.05167 1.28599 1.76234 1.52399 1.52387C1.76246 1.28587 2.05179 1.16687 2.39199 1.16687H11.6082C11.9484 1.16687 12.2377 1.28587 12.4762 1.52387C12.7142 1.76234 12.8332 2.05167 12.8332 2.39187V12.8331ZM2.39199 2.39187V9.27497H11.0104L11.6082 9.87277V2.39187H2.39199Z" fill="#4D4D4D"/>
</g>
</g>
</svg>
