<svg width="18" height="18" viewBox="0 0 18 18" fill="none" xmlns="http://www.w3.org/2000/svg">
<path d="M6 18H2C1.45 18 0.979 17.8043 0.587 17.413C0.195667 17.021 0 16.55 0 16V9C0 7.75 0.237333 6.579 0.712 5.487C1.18733 4.39567 1.82933 3.44567 2.638 2.637C3.446 1.829 4.396 1.18733 5.488 0.712C6.57933 0.237333 7.75 0 9 0C10.25 0 11.421 0.237333 12.513 0.712C13.6043 1.18733 14.5543 1.829 15.363 2.637C16.171 3.44567 16.8127 4.39567 17.288 5.487C17.7627 6.579 18 7.75 18 9V16C18 16.55 17.8043 17.021 17.413 17.413C17.021 17.8043 16.55 18 16 18H12V10H16V9C16 7.05 15.3207 5.39567 13.962 4.037C12.604 2.679 10.95 2 9 2C7.05 2 5.396 2.679 4.038 4.037C2.67933 5.39567 2 7.05 2 9V10H6V18ZM4 12H2V16H4V12ZM14 12V16H16V12H14Z" fill="#333333"/>
</svg>
