<svg width="14" height="14" viewBox="0 0 14 14" fill="none" xmlns="http://www.w3.org/2000/svg">
<g id="visibility">
<mask id="mask0_792_823" style="mask-type:alpha" maskUnits="userSpaceOnUse" x="0" y="0" width="14" height="14">
<rect id="Bounding box" width="14" height="14" fill="#D9D9D9"/>
</mask>
<g mask="url(#mask0_792_823)">
<path id="visibility_2" d="M7.0002 9.45005C7.6806 9.45005 8.25903 9.21182 8.7355 8.73535C9.21196 8.25888 9.4502 7.68045 9.4502 7.00005C9.4502 6.31965 9.21196 5.74122 8.7355 5.26475C8.25903 4.78828 7.6806 4.55005 7.0002 4.55005C6.3198 4.55005 5.74136 4.78828 5.2649 5.26475C4.78843 5.74122 4.5502 6.31965 4.5502 7.00005C4.5502 7.68045 4.78843 8.25888 5.2649 8.73535C5.74136 9.21182 6.3198 9.45005 7.0002 9.45005ZM7.0002 8.40005C6.61146 8.40005 6.28083 8.26402 6.0083 7.99195C5.73623 7.71942 5.6002 7.38878 5.6002 7.00005C5.6002 6.61132 5.73623 6.28068 6.0083 6.00815C6.28083 5.73608 6.61146 5.60005 7.0002 5.60005C7.38893 5.60005 7.71956 5.73608 7.9921 6.00815C8.26416 6.28068 8.4002 6.61132 8.4002 7.00005C8.4002 7.38878 8.26416 7.71942 7.9921 7.99195C7.71956 8.26402 7.38893 8.40005 7.0002 8.40005ZM7.0002 11.2C5.61 11.2 4.34603 10.8185 3.2083 10.0555C2.07103 9.29208 1.235 8.27358 0.700195 7.00005C1.235 5.72652 2.07103 4.70802 3.2083 3.94455C4.34603 3.18155 5.61 2.80005 7.0002 2.80005C8.3904 2.80005 9.65436 3.18155 10.7921 3.94455C11.9294 4.70802 12.7654 5.72652 13.3002 7.00005C12.7654 8.27358 11.9294 9.29208 10.7921 10.0555C9.65436 10.8185 8.3904 11.2 7.0002 11.2ZM7.0002 10.15C8.08893 10.15 9.09506 9.86818 10.0186 9.30445C10.9426 8.74025 11.6524 7.97212 12.148 7.00005C11.6524 6.02798 10.9426 5.25985 10.0186 4.69565C9.09506 4.13192 8.08893 3.85005 7.0002 3.85005C5.91146 3.85005 4.90533 4.13192 3.9818 4.69565C3.0578 5.25985 2.348 6.02798 1.8524 7.00005C2.348 7.97212 3.0578 8.74025 3.9818 9.30445C4.90533 9.86818 5.91146 10.15 7.0002 10.15Z" fill="#4D4D4D"/>
</g>
</g>
</svg>
